# xmcd
#
# Track frame offsets: 
#        150
#        21460
#        33819
#        48987
#        64502
#        78458
#        91808
#        115218
#        138336
#        147991
#
# Disc length: 2170 seconds
#
# Revision: 0
# Processed by: cddbd v1.5.2PL0 Copyright (c) Steve Scherf et al.
# Submitted via: ExactAudioCopyFreeDBPlugin 1.0
#
DISCID=7f08780a
DTITLE=Michael Mansour - Touch Of Cream
DYEAR=2012
DGENRE=Blues
TTITLE0=White Room
TTITLE1=Badge
TTITLE2=Sleepy Time Time
TTITLE3=Born Under A Bad Sign
TTITLE4=Crossroads
TTITLE5=Take It Back
TTITLE6=Sunshine Of Your Love
TTITLE7=Politician
TTITLE8=From Four Until Late
TTITLE9=After Midnight
EXTD=
EXTT0=
EXTT1=
EXTT2=
EXTT3=
EXTT4=
EXTT5=
EXTT6=
EXTT7=
EXTT8=
EXTT9=
PLAYORDER=
